<svg xmlns="http://www.w3.org/2000/svg" xmlns:xlink="http://www.w3.org/1999/xlink" width="429.8947448730469" height="524.9991149902344" viewBox="0 0 429.8947448730469 524.9991149902344" fill="none"><g opacity="1"  transform="translate(5.892852783203125 2.624053955078125)  rotate(0)"><path id="路径 1" fill-rule="evenodd" style="fill:#D3D3D3" opacity="1" d="M4.10376,346.67l220.13024,-70.66c0,0 3.67,5.28 -84.24,62.45c-84.3802,54.87 -108.6502,27.51 -135.89024,8.21zM4.10376,346.67c0,0 -0.29,-70.74 51.51004,-262.98c21.72,-81.62 84.3802,-83.69 84.3802,-83.69z"></path><path  id="路径 1" style="fill:#FFFFFF; opacity:1;" d="M138.631,336.364c20.102,-13.07267 36.81333,-24.33833 50.134,-33.797c10.62667,-7.54533 18.85367,-13.76633 24.681,-18.663c2.25933,-1.89867 4.106,-3.55567 5.54,-4.971c1.09467,-1.08067 1.90567,-1.976 2.433,-2.686c0.16867,-0.226 0.29433,-0.41467 0.377,-0.566c0.01933,-0.03533 0.033,-0.062 0.041,-0.08c-0.00733,0.016 -0.01533,0.04033 -0.024,0.073c-0.05533,0.194 -0.07133,0.41167 -0.048,0.653c0.038,0.39067 0.173,0.75567 0.405,1.095c0.00333,0.004 0.007,0.009 0.011,0.015l2.053,-1.427l0.764,2.38l-220.13016,70.66l-0.76408,-2.38l1.44529,-2.04c1.3726,0.97267 3.41848,2.46067 6.13765,4.464c2.08887,1.53867 3.66117,2.688 4.7169,3.448c1.7502,1.26067 3.3439,2.374 4.7811,3.34c3.56873,2.39933 6.9158,4.38567 10.0412,5.959c3.72627,1.87533 7.4501,3.332 11.1715,4.37c4.1792,1.16667 8.49893,1.849 12.9592,2.047c4.89593,0.218 10.05087,-0.14067 15.4648,-1.076c5.8522,-1.01067 12.067,-2.70467 18.6444,-5.082c14.38747,-5.19933 30.77587,-13.778 49.1652,-25.736zM141.357,340.556c-18.712,12.168 -35.4426,20.917 -50.1918,26.247c-6.8534,2.47667 -13.35093,4.24533 -19.4926,5.306c-5.7694,0.99667 -11.2822,1.378 -16.5384,1.144c-4.84087,-0.21533 -9.5344,-0.95733 -14.0806,-2.226c-4.03407,-1.12533 -8.05923,-2.69867 -12.0755,-4.72c-3.3128,-1.66733 -6.8405,-3.759 -10.5831,-6.275c-1.48153,-0.996 -3.1193,-2.14 -4.9133,-3.432c-1.06953,-0.77 -2.65643,-1.93033 -4.76068,-3.481c-2.69361,-1.984 -4.71446,-3.45367 -6.06255,-4.409l-4.08117,-2.892l226.6537,-72.754l1.056,1.519c0.00533,0.008 0.00867,0.013 0.01,0.015c0.252,0.368 0.40033,0.78333 0.445,1.246c0.03733,0.38267 -0.002,0.779 -0.118,1.189c-0.18,0.638 -0.57733,1.37033 -1.192,2.197c-1.49533,2.012 -4.41833,4.846 -8.769,8.502c-5.93133,4.984 -14.26567,11.288 -25.003,18.912c-13.37667,9.498 -30.14433,20.802 -50.303,33.912zM140.076,2.49864c-0.12733,0.00422 -0.32833,0.01669 -0.603,0.03742c-0.58,0.04383 -1.21633,0.10836 -1.909,0.19359c-2.25,0.27684 -4.625,0.71084 -7.125,1.302c-3.51533,0.83134 -7.02233,1.91848 -10.521,3.26142c-4.37733,1.68059 -8.614,3.71523 -12.71,6.10393c-4.84287,2.82473 -9.41367,6.10237 -13.7124,9.8329c-4.91927,4.26913 -9.4355,9.09217 -13.5487,14.4691c-4.6088,6.02473 -8.6819,12.7069 -12.2193,20.0465c-3.90407,8.10027 -7.1367,16.96273 -9.6979,26.5874c-11.86127,44.0194 -21.81913,84.71143 -29.8736,122.0761c-6.44033,29.876 -11.5241,56.956 -15.2513,81.24c-1.46293,9.532 -2.68913,18.464 -3.6786,26.796c-0.79059,6.65667 -1.41278,12.78 -1.86657,18.37c-0.32316,3.98133 -0.54622,7.495 -0.66918,10.541c-0.06067,1.50267 -0.08957,2.604 -0.0867,3.304l-2.49999,0.01l-2.32757,-0.912l135.88981,-346.67037l2.328,0.91238zM143.708,-2.62405l-137.27667,350.20605l-4.82754,-0.902c-0.00317,-0.774 0.02707,-1.94933 0.09073,-3.526c0.12569,-3.11333 0.35286,-6.69433 0.6815,-10.743c0.45881,-5.652 1.08717,-11.83733 1.88507,-18.556c0.99618,-8.388 2.23005,-17.376 3.70161,-26.964c3.7424,-24.38333 8.84427,-51.562 15.3056,-81.536c8.07247,-37.44733 18.049,-78.21663 29.9296,-122.3079c2.64247,-9.93007 5.9843,-19.08753 10.0255,-27.4724c3.68547,-7.64687 7.9362,-14.6181 12.7522,-20.9137c4.31953,-5.64653 9.06717,-10.71563 14.2429,-15.2073c4.5344,-3.9352 9.3579,-7.39378 14.4705,-10.37573c4.32867,-2.5246 8.80767,-4.67552 13.437,-6.45276c3.708,-1.4233 7.42867,-2.57642 11.162,-3.45936c2.67867,-0.63332 5.234,-1.09958 7.666,-1.39878c1.244,-0.15311 2.22967,-0.24168 2.957,-0.26571z"></path><path id="路径 1" fill-rule="evenodd" style="fill:#00008B" opacity="1" d="M7.16993,347.636l232.96707,-18.929c0,0 2.179,6.05 -97.533,38.519c-95.7059,31.162 -114.1175,6.102 -135.43407,-19.59zM7.16993,347.636c0,0 20.07857,-76.055 119.86907,-248.3377c42.105,-73.2173 103.165,-58.9992 103.165,-58.9992z"></path><path  id="路径 1" style="fill:#FFFFFF; opacity:1;" d="M141.83,364.849c22.80067,-7.424 41.85867,-13.98067 57.174,-19.67c12.21733,-4.538 21.774,-8.41767 28.67,-11.639c2.674,-1.24933 4.88633,-2.372 6.637,-3.368c1.33733,-0.76 2.35267,-1.41467 3.046,-1.964c0.22133,-0.17533 0.39167,-0.32533 0.511,-0.45c0.028,-0.02867 0.04767,-0.05067 0.059,-0.066c-0.01067,0.014 -0.02433,0.03533 -0.041,0.064c-0.10333,0.17333 -0.175,0.37933 -0.215,0.618c-0.06467,0.38733 -0.02867,0.775 0.108,1.163c0.00133,0.00467 0.00333,0.01033 0.006,0.017l2.352,-0.847l0.203,2.492l-232.96762,18.929l-0.20245,-2.492l1.924,-1.596c0.26807,0.32267 0.66979,0.80733 1.20517,1.454c1.7264,2.08533 3.0236,3.64067 3.8916,4.666c1.43627,1.696 2.74757,3.199 3.9339,4.509c2.93087,3.236 5.73837,5.98967 8.4225,8.261c3.1832,2.69467 6.47943,4.96833 9.8887,6.821c3.81327,2.07267 7.9158,3.70467 12.3076,4.896c4.8034,1.302 10.0543,2.107 15.7527,2.415c6.1308,0.33133 12.85587,0.092 20.1752,-0.718c15.86247,-1.754 34.91537,-6.25233 57.1587,-13.495zM143.378,369.604c-11.55867,3.76333 -22.25133,6.79267 -32.078,9.088c-9.42413,2.20067 -18.11713,3.74133 -26.079,4.622c-7.5918,0.84 -14.59,1.087 -20.9946,0.741c-6.05067,-0.32733 -11.64787,-1.18833 -16.7916,-2.583c-4.76833,-1.29267 -9.2306,-3.06867 -13.3868,-5.328c-3.70967,-2.016 -7.28673,-4.48167 -10.7312,-7.397c-2.85293,-2.41467 -5.81893,-5.322 -8.898,-8.722c-1.2234,-1.35067 -2.57137,-2.89533 -4.0439,-4.634c-0.88056,-1.04 -2.1896,-2.60933 -3.92712,-4.708c-0.53619,-0.648 -0.93681,-1.13167 -1.20186,-1.451l-3.06888,-3.699l239.66396,-19.472l0.648,1.799c0.00333,0.00867 0.00567,0.01467 0.007,0.018c0.14733,0.42067 0.183,0.86 0.107,1.318c-0.06333,0.37933 -0.20367,0.752 -0.421,1.118c-0.33933,0.57 -0.913,1.17467 -1.721,1.814c-1.96467,1.556 -5.52167,3.53667 -10.671,5.942c-7.01867,3.27933 -16.70033,7.21133 -29.045,11.796c-15.37933,5.71267 -34.50167,12.29167 -57.367,19.737zM229.637,42.734c-0.12467,-0.02907 -0.322,-0.06907 -0.592,-0.12c-0.57133,-0.10773 -1.20267,-0.2101 -1.894,-0.3071c-2.24533,-0.31493 -4.65167,-0.51043 -7.219,-0.5865c-3.61133,-0.10687 -7.28033,0.0356 -11.007,0.4274c-4.66333,0.49027 -9.28233,1.35903 -13.857,2.6063c-5.40867,1.475 -10.672,3.45793 -15.79,5.9488c-5.85667,2.85047 -11.46733,6.34023 -16.832,10.4693c-6.01067,4.62667 -11.67433,10.02697 -16.991,16.2009c-5.86733,6.8138 -11.28367,14.53777 -16.249,23.1719c-22.84833,39.446 -43.1038,76.569 -60.7664,111.369c-14.12333,27.82667 -26.27703,53.543 -36.4611,77.149c-3.99753,9.26667 -7.6193,18.045 -10.8653,26.335c-2.59387,6.62467 -4.88967,12.78767 -6.8874,18.489c-1.4234,4.062 -2.62637,7.68867 -3.6089,10.88c-0.486,1.57867 -0.82926,2.74767 -1.02978,3.507l-2.41719,-0.638l-2.02335,-1.469l223.03442,-307.3362l2.023,1.4683zM234.44,38.7186l-225.24672,310.3854l-4.44053,-2.106c0.21778,-0.82533 0.57962,-2.05933 1.08553,-3.702c1.00134,-3.25267 2.22427,-6.94 3.6688,-11.062c2.01761,-5.75867 4.33439,-11.97833 6.95032,-18.659c3.26667,-8.34333 6.91003,-17.174 10.9301,-26.492c10.22527,-23.702 22.4231,-49.51267 36.5935,-77.432c17.70433,-34.882 38.00133,-72.08167 60.891,-111.599c5.122,-8.9078 10.72,-16.8883 16.794,-23.9415c5.53933,-6.4324 11.44967,-12.0659 17.731,-16.9005c5.63333,-4.3362 11.531,-8.00383 17.693,-11.0029c5.39867,-2.62747 10.953,-4.71973 16.663,-6.2768c4.83467,-1.31827 9.718,-2.23663 14.65,-2.7551c3.94933,-0.41527 7.84167,-0.56613 11.677,-0.4526c2.75067,0.08147 5.33933,0.2924 7.766,0.6328c1.24133,0.1742 2.21633,0.3438 2.925,0.5088z"></path><path id="路径 1" fill-rule="evenodd" style="fill:#87CEEB" opacity="1" d="M9.88629,348.11l229.92871,42.012c0,0 0.538,6.408 -104.179,11.964c-100.5107,5.328 -111.8092,-23.642 -125.74971,-53.976zM9.88629,348.11c0,0 39.07881,-68.267 180.05871,-208.852c59.62,-59.8248 114.92,-30.288 114.92,-30.288z"></path><path  id="路径 1" style="fill:#FFFFFF; opacity:1;" d="M135.503,399.589c23.94533,-1.27 44.05067,-2.67067 60.316,-4.202c12.976,-1.22133 23.21133,-2.49533 30.706,-3.822c2.906,-0.51467 5.33367,-1.02633 7.283,-1.535c1.48867,-0.38867 2.63867,-0.75833 3.45,-1.109c0.25933,-0.112 0.46267,-0.213 0.61,-0.303c0.03467,-0.02067 0.05967,-0.03667 0.075,-0.048c-0.014,0.01 -0.033,0.02667 -0.057,0.05c-0.14467,0.14067 -0.26733,0.32133 -0.368,0.542c-0.162,0.35733 -0.22733,0.741 -0.196,1.151c0,0.00533 0.00033,0.01167 0.001,0.019l2.492,-0.21l-0.45,2.46l-229.92808,-42.013l0.44937,-2.459l2.27161,-1.044c0.17533,0.38133 0.43787,0.95367 0.7876,1.717c1.12787,2.46067 1.97837,4.29833 2.5515,5.513c0.94833,2.01067 1.82597,3.802 2.6329,5.374c1.99347,3.884 3.99253,7.27067 5.9972,10.16c2.37747,3.42667 4.9729,6.476 7.7863,9.148c3.14693,2.98867 6.68737,5.62667 10.6213,7.914c4.30267,2.50133 9.16627,4.638 14.5908,6.41c5.83613,1.90667 12.39393,3.41633 19.6734,4.529c15.77607,2.41067 35.3441,2.99667 58.7041,1.758zM135.768,404.582c-12.13867,0.64333 -23.25133,0.802 -33.338,0.476c-9.67233,-0.31267 -18.4678,-1.07433 -26.3864,-2.285c-7.5504,-1.15333 -14.374,-2.726 -20.4708,-4.718c-5.75993,-1.882 -10.94363,-4.162 -15.5511,-6.84c-4.2712,-2.48333 -8.12177,-5.354 -11.5517,-8.612c-3.0614,-2.90733 -5.87837,-6.215 -8.4509,-9.923c-2.13073,-3.07067 -4.24327,-6.64633 -6.3376,-10.727c-0.83213,-1.62133 -1.7343,-3.46233 -2.7065,-5.523c-0.5814,-1.23267 -1.43968,-3.08733 -2.57485,-5.564c-0.35029,-0.76467 -0.61211,-1.33533 -0.78546,-1.712l-2.00696,-4.367l236.53827,43.22l0.16,1.906c0.00067,0.00933 0.001,0.01533 0.001,0.018c0.034,0.44467 -0.045,0.87833 -0.237,1.301c-0.15933,0.35067 -0.39133,0.67433 -0.696,0.971c-0.47533,0.46267 -1.186,0.89833 -2.132,1.307c-2.30067,0.99467 -6.249,1.98733 -11.845,2.978c-7.62867,1.35067 -17.99833,2.643 -31.109,3.877c-16.33333,1.53733 -36.50667,2.943 -60.52,4.217zM303.687,111.176c-0.11267,-0.06067 -0.293,-0.15067 -0.541,-0.27c-0.524,-0.252 -1.10733,-0.514 -1.75,-0.786c-2.08667,-0.88533 -4.36033,-1.697 -6.821,-2.435c-3.46067,-1.038 -7.04133,-1.85 -10.742,-2.436c-4.632,-0.73333 -9.31833,-1.08967 -14.059,-1.069c-5.60667,0.02467 -11.204,0.57767 -16.792,1.659c-6.39533,1.23733 -12.718,3.156 -18.968,5.756c-7.004,2.91333 -13.87267,6.66367 -20.606,11.251c-7.43133,5.06333 -14.662,11.12233 -21.692,18.177c-32.27933,32.18867 -61.453,62.80433 -87.521,91.847c-20.8438,23.22333 -39.2391,44.918 -55.1859,65.084c-6.25953,7.916 -12.02983,15.45767 -17.3109,22.625c-4.22013,5.728 -8.0328,11.087 -11.438,16.077c-2.42633,3.55533 -4.52697,6.747 -6.3019,9.575c-0.87793,1.39867 -1.51203,2.439 -1.9023,3.121l-2.16971,-1.242l-1.57437,-1.942l294.97908,-239.14l1.574,1.942zM309.366,108.54l-297.9053,241.512l-3.74406,-3.184c0.42386,-0.74067 1.09275,-1.839 2.00667,-3.295c1.80893,-2.882 3.94456,-6.12733 6.40689,-9.736c3.4392,-5.03933 7.28677,-10.44733 11.5427,-16.224c5.31467,-7.21333 11.11943,-14.8 17.4143,-22.76c16.0112,-20.248 34.47347,-42.022 55.3868,-65.322c26.12933,-29.112 55.36267,-59.79133 87.7,-92.038c7.25333,-7.278 14.72633,-13.53767 22.419,-18.779c7.01467,-4.77933 14.18133,-8.691 21.5,-11.735c6.564,-2.73067 13.21033,-4.747 19.939,-6.049c5.894,-1.1406 11.80067,-1.72397 17.72,-1.7501c5.01067,-0.02207 9.965,0.35463 14.863,1.1301c3.92267,0.62133 7.72133,1.483 11.396,2.585c2.636,0.79067 5.082,1.66467 7.338,2.622c1.154,0.48933 2.052,0.90533 2.694,1.248z"></path><path id="路径 1" fill-rule="evenodd" style="fill:#00E1FF" opacity="1" d="M13.9755,349.194l211.2195,100.091c0,0 -1.138,6.329 -103.725,-15.407c-98.4647,-20.867 -101.8801,-51.775 -107.4945,-84.684zM13.9755,349.194c0,0 55.416,-55.826 227.9785,-155.132c73.072,-42.355 118.843,0.488 118.843,0.488z"></path><path  id="路径 1" style="fill:#FFFFFF; opacity:1;" d="M121.988,431.432c23.458,4.97067 43.241,8.82133 59.349,11.552c12.84933,2.17867 23.06533,3.597 30.648,4.255c2.94067,0.25533 5.41833,0.38967 7.433,0.403c1.538,0.00933 2.74433,-0.05033 3.619,-0.179c0.27933,-0.04067 0.50167,-0.08533 0.667,-0.134c0.03867,-0.01133 0.067,-0.02067 0.085,-0.028c-0.016,0.00667 -0.03867,0.01833 -0.068,0.035c-0.176,0.098 -0.341,0.24067 -0.495,0.428c-0.24933,0.30333 -0.412,0.657 -0.488,1.061c-0.00067,0.00467 -0.00167,0.01067 -0.003,0.018l2.46,0.442l-1.07,2.26l-211.22,-100.091l1.0705,-2.26l2.4644,-0.42c0.0706,0.414 0.17607,1.03467 0.3164,1.862c0.45247,2.66933 0.7983,4.665 1.0375,5.987c0.39573,2.18667 0.77983,4.144 1.1523,5.872c0.92027,4.26733 1.9747,8.05567 3.1633,11.365c1.4096,3.92533 3.1274,7.54267 5.1534,10.852c2.26607,3.70133 5.00307,7.16567 8.211,10.393c3.50867,3.53 7.65353,6.85267 12.4346,9.968c5.1438,3.35267 11.08743,6.50833 17.8309,9.467c14.61453,6.41133 33.3641,12.042 56.2487,16.892zM120.952,436.323c-11.892,-2.52 -22.66707,-5.243 -32.3252,-8.169c-9.262,-2.80533 -17.56077,-5.81733 -24.8963,-9.036c-6.99453,-3.06867 -13.17857,-6.354 -18.5521,-9.856c-5.0766,-3.308 -9.4935,-6.852 -13.2507,-10.632c-3.48307,-3.504 -6.4595,-7.27333 -8.9293,-11.308c-2.20447,-3.60067 -4.06937,-7.52467 -5.5947,-11.772c-1.26333,-3.51733 -2.3784,-7.518 -3.3452,-12.002c-0.38413,-1.78133 -0.77907,-3.793 -1.1848,-6.035c-0.2426,-1.34133 -0.59163,-3.355 -1.0471,-6.041c-0.14053,-0.82867 -0.2457,-1.44767 -0.3155,-1.857l-0.8083,-4.738l217.2922,102.968l-0.339,1.883c-0.002,0.00933 -0.003,0.01533 -0.003,0.018c-0.08267,0.43867 -0.27133,0.83733 -0.566,1.196c-0.24467,0.29667 -0.55267,0.549 -0.924,0.757c-0.57933,0.324 -1.37833,0.561 -2.397,0.711c-2.48,0.36533 -6.551,0.302 -12.213,-0.19c-7.718,-0.66933 -18.06867,-2.10467 -31.052,-4.306c-16.17467,-2.74267 -36.02433,-6.60633 -59.549,-11.591zM359.089,196.375c-0.09333,-0.08733 -0.24433,-0.22067 -0.453,-0.4c-0.44133,-0.37867 -0.937,-0.783 -1.487,-1.213c-1.78667,-1.39533 -3.773,-2.76767 -5.959,-4.117c-3.07333,-1.898 -6.32167,-3.609 -9.745,-5.133c-4.284,-1.90733 -8.71867,-3.46433 -13.304,-4.671c-5.422,-1.42733 -10.97167,-2.342 -16.649,-2.744c-6.49733,-0.45933 -13.101,-0.24233 -19.811,0.651c-7.51933,1.00133 -15.12467,2.84633 -22.816,5.535c-8.488,2.96667 -17.04033,6.94733 -25.657,11.942c-39.51067,22.738 -75.61433,44.76 -108.311,66.066c-26.1442,17.03667 -49.52767,33.231 -70.1504,48.583c-8.095,6.02533 -15.62063,11.81633 -22.5769,17.373c-5.5588,4.44067 -10.62857,8.63033 -15.2093,12.569c-3.2638,2.806 -6.1189,5.345 -8.5653,7.617c-1.21013,1.124 -2.0919,1.965 -2.6453,2.523l-1.7743,-1.762l-1.0181,-2.283l346.8216,-154.644l1.018,2.283zM365.256,195.299l-350.2624,156.179l-2.7924,-4.045c0.60107,-0.60533 1.53143,-1.493 2.7911,-2.663c2.49327,-2.316 5.39603,-4.898 8.7083,-7.746c4.62647,-3.978 9.74263,-8.20567 15.3485,-12.683c7.0006,-5.592 14.57123,-11.418 22.7119,-17.478c20.70607,-15.414 44.17507,-31.66767 70.407,-48.761c32.77333,-21.35667 68.95067,-43.42433 108.532,-66.203c8.89,-5.15267 17.72833,-9.26467 26.515,-12.336c8.01333,-2.80133 15.94867,-4.725 23.806,-5.771c7.04667,-0.93867 13.988,-1.166 20.824,-0.682c5.98867,0.42333 11.845,1.38833 17.569,2.895c4.846,1.276 9.534,2.92233 14.064,4.939c3.62867,1.61533 7.075,3.431 10.339,5.447c2.342,1.446 4.47833,2.923 6.409,4.431c0.98867,0.77133 1.74867,1.40567 2.28,1.903z"></path></g></svg>