<svg xmlns="http://www.w3.org/2000/svg" xmlns:xlink="http://www.w3.org/1999/xlink" width="318.4646911621094" height="425.56080627441406" viewBox="0 0 318.4646911621094 425.56080627441406" fill="none"><path id="路径 1" fill-rule="evenodd" style="fill:#00008B" opacity="1" d="M10.946,346.43l232.967,-18.928c0,0 2.179,6.05 -97.533,38.519c-95.7058,31.161 -114.1174,6.102 -135.434,-19.591zM10.946,346.43c0,0 20.0786,-76.054 119.869,-248.3372c42.105,-73.2173 103.165,-58.9992 103.165,-58.9992z"></path><path  id="路径 1" style="fill:#FFFFFF; opacity:1;" d="M145.606,363.644c22.80067,-7.42467 41.85867,-13.98133 57.174,-19.67c12.21733,-4.538 21.774,-8.41767 28.67,-11.639c2.674,-1.24933 4.88667,-2.372 6.638,-3.368c1.33733,-0.76067 2.35233,-1.41533 3.045,-1.964c0.22133,-0.17533 0.39167,-0.32533 0.511,-0.45c0.028,-0.02933 0.04767,-0.05167 0.059,-0.067c-0.01067,0.014 -0.02433,0.03533 -0.041,0.064c-0.10333,0.17333 -0.175,0.37967 -0.215,0.619c-0.06467,0.38733 -0.02867,0.77467 0.108,1.162c0.002,0.00533 0.004,0.01133 0.006,0.018l2.352,-0.847l0.203,2.492l-232.9675,18.928l-0.2025,-2.492l1.924,-1.596c0.26807,0.32333 0.6698,0.80833 1.2052,1.455c1.7264,2.08467 3.0236,3.63967 3.8916,4.665c1.43627,1.69667 2.74757,3.19967 3.9339,4.509c2.93087,3.236 5.73837,5.99 8.4225,8.262c3.1832,2.694 6.4794,4.96767 9.8886,6.821c3.81333,2.07267 7.9159,3.70433 12.3077,4.895c4.8034,1.30267 10.0543,2.108 15.7527,2.416c6.1308,0.33067 12.85587,0.09133 20.1752,-0.718c15.8624,-1.75467 34.91527,-6.253 57.1586,-13.495zM147.154,368.398c-11.55867,3.76333 -22.25133,6.79267 -32.078,9.088c-9.424,2.20133 -18.11697,3.74233 -26.0789,4.623c-7.5918,0.83933 -14.59,1.086 -20.9946,0.74c-6.05067,-0.32667 -11.64787,-1.18733 -16.7916,-2.582c-4.76833,-1.29333 -9.2306,-3.06933 -13.3868,-5.328c-3.70967,-2.01667 -7.28673,-4.48267 -10.7312,-7.398c-2.85293,-2.41467 -5.81893,-5.32167 -8.898,-8.721c-1.2234,-1.35067 -2.57137,-2.89567 -4.0439,-4.635c-0.88053,-1.04 -2.18957,-2.60933 -3.9271,-4.708c-0.53621,-0.64733 -0.93684,-1.13067 -1.20189,-1.45l-3.06888,-3.699l239.66387,-19.473l0.648,1.8c0.00333,0.00867 0.00567,0.01433 0.007,0.017c0.148,0.42067 0.18367,0.86 0.107,1.318c-0.06333,0.38 -0.20367,0.75267 -0.421,1.118c-0.33933,0.57 -0.913,1.175 -1.721,1.815c-1.96467,1.55533 -5.52167,3.536 -10.671,5.942c-7.01867,3.27867 -16.70033,7.21067 -29.045,11.796c-15.37933,5.71267 -34.50167,12.29167 -57.367,19.737zM233.413,41.5285c-0.12467,-0.029 -0.322,-0.069 -0.592,-0.12c-0.57133,-0.10773 -1.20267,-0.2101 -1.894,-0.3071c-2.24533,-0.31493 -4.65167,-0.5104 -7.219,-0.5864c-3.61133,-0.10693 -7.28033,0.0355 -11.007,0.4273c-4.66333,0.49027 -9.282,1.35907 -13.856,2.6064c-5.40933,1.47493 -10.673,3.45783 -15.791,5.9487c-5.85667,2.85047 -11.46733,6.34027 -16.832,10.4694c-6.01067,4.6266 -11.67433,10.02687 -16.991,16.2008c-5.86733,6.8138 -11.28367,14.53763 -16.249,23.1715c-22.84827,39.4466 -43.1037,76.5699 -60.7663,111.3699c-14.12333,27.82667 -26.27703,53.543 -36.4611,77.149c-3.99753,9.266 -7.6193,18.044 -10.8653,26.334c-2.59387,6.62533 -4.88967,12.78867 -6.8874,18.49c-1.4234,4.062 -2.62637,7.68867 -3.6089,10.88c-0.486,1.578 -0.82927,2.74667 -1.0298,3.506l-2.4172,-0.638l-2.02333,-1.468l223.03433,-307.3367l2.023,1.4683zM238.216,37.5131l-225.2466,310.3859l-4.44055,-2.107c0.21777,-0.82467 0.57961,-2.05867 1.08552,-3.702c1.00135,-3.252 2.2243,-6.93933 3.66883,-11.062c2.0176,-5.758 4.33437,-11.97767 6.9503,-18.659c3.26667,-8.34267 6.91003,-17.17333 10.9301,-26.492c10.22527,-23.70133 22.4231,-49.51167 36.5935,-77.431c17.70433,-34.882 38.0013,-72.08183 60.8909,-111.5995c5.12267,-8.90773 10.72067,-16.88823 16.794,-23.9415c5.53933,-6.4324 11.44967,-12.0659 17.731,-16.9005c5.63333,-4.3362 11.531,-8.00383 17.693,-11.0029c5.39867,-2.62747 10.953,-4.71973 16.663,-6.2768c4.83467,-1.31827 9.718,-2.23663 14.65,-2.7551c3.94933,-0.4152 7.84167,-0.56603 11.677,-0.4525c2.75067,0.0814 5.33933,0.2923 7.766,0.6327c1.24133,0.1742 2.21633,0.34383 2.925,0.5089z"></path></svg>