<svg xmlns="http://www.w3.org/2000/svg" xmlns:xlink="http://www.w3.org/1999/xlink" width="429.5633544921875" height="429.5633544921875" viewBox="0 0 429.5633544921875 429.5633544921875" fill="none"><path id="路径 1" fill-rule="evenodd" style="fill:#00E1FF" opacity="1" d="M19.537,256.383l211.22,100.091c0,0 -1.139,6.328 -103.726,-15.408c-98.4643,-20.867 -101.8796,-51.774 -107.494,-84.683zM19.537,256.383c0,0 55.4159,-55.826 227.978,-155.132c73.073,-42.3561 118.844,0.488 118.844,0.488z"></path><path  id="路径 1" style="fill:#FFFFFF; opacity:1;" d="M127.55,338.62c23.45733,4.97067 43.24,8.82133 59.348,11.552c12.84933,2.17867 23.06567,3.597 30.649,4.255c2.94,0.25533 5.41733,0.38967 7.432,0.403c1.53867,0.01 2.74533,-0.04933 3.62,-0.178c0.27933,-0.04133 0.50167,-0.08633 0.667,-0.135c0.03867,-0.01133 0.067,-0.02033 0.085,-0.027c-0.016,0.006 -0.03867,0.01733 -0.068,0.034c-0.17667,0.09867 -0.342,0.24133 -0.496,0.428c-0.24933,0.30333 -0.41167,0.657 -0.487,1.061c-0.00133,0.00533 -0.00267,0.01133 -0.004,0.018l2.461,0.443l-1.071,2.259l-211.2196,-100.091l1.0706,-2.259l2.4644,-0.421c0.0706,0.414 0.17607,1.035 0.3164,1.863c0.45247,2.66867 0.7983,4.664 1.0375,5.986c0.39567,2.18733 0.77977,4.14467 1.1523,5.872c0.92027,4.268 1.9747,8.05667 3.1633,11.366c1.4096,3.92467 3.12737,7.54167 5.1533,10.851c2.26613,3.702 5.00317,7.16633 8.2111,10.393c3.50867,3.53 7.6535,6.853 12.4345,9.969c5.1438,3.352 11.08747,6.50733 17.831,9.466c14.61453,6.412 33.36427,12.04267 56.2492,16.892zM126.513,343.512c-11.892,-2.52067 -22.6669,-5.24367 -32.3247,-8.169c-9.262,-2.806 -17.56077,-5.818 -24.8963,-9.036c-6.99453,-3.06867 -13.17857,-6.354 -18.5521,-9.856c-5.0766,-3.30867 -9.4935,-6.853 -13.2507,-10.633c-3.48307,-3.50333 -6.4595,-7.27233 -8.9293,-11.307c-2.20453,-3.60133 -4.06943,-7.52533 -5.5947,-11.772c-1.2634,-3.518 -2.3785,-7.51867 -3.3453,-12.002c-0.38413,-1.78133 -0.77903,-3.79333 -1.1847,-6.036c-0.24267,-1.34067 -0.5917,-3.35433 -1.0471,-6.041c-0.14053,-0.82867 -0.2457,-1.44767 -0.3155,-1.857l-0.8083,-4.738l217.2917,102.969l-0.339,1.882c-0.00133,0.00933 -0.00233,0.01567 -0.003,0.019c-0.082,0.438 -0.27067,0.83633 -0.566,1.195c-0.24467,0.29733 -0.55267,0.54967 -0.924,0.757c-0.57867,0.324 -1.37767,0.561 -2.397,0.711c-2.47933,0.36533 -6.55,0.30233 -12.212,-0.189c-7.71867,-0.67 -18.06967,-2.10567 -31.053,-4.307c-16.17467,-2.74267 -36.02433,-6.606 -59.549,-11.59zM364.65,103.564c-0.09333,-0.08733 -0.24433,-0.22067 -0.453,-0.4c-0.44067,-0.37933 -0.936,-0.78367 -1.486,-1.213c-1.78733,-1.39553 -3.77367,-2.76817 -5.959,-4.1179c-3.074,-1.89807 -6.32267,-3.6091 -9.746,-5.1331c-4.284,-1.9072 -8.71833,-3.46427 -13.303,-4.6712c-5.422,-1.4272 -10.97167,-2.34167 -16.649,-2.7434c-6.49733,-0.45973 -13.10133,-0.24283 -19.812,0.6507c-7.51933,1.00127 -15.12433,2.84617 -22.815,5.5347c-8.48867,2.9672 -17.04133,6.94827 -25.658,11.9432c-39.51067,22.73733 -75.614,44.759 -108.31,66.065c-26.14467,17.03733 -49.5283,33.23167 -70.1509,48.583c-8.09507,6.026 -15.6207,11.81733 -22.5769,17.374c-5.5588,4.44 -10.62857,8.62933 -15.2093,12.568c-3.2638,2.806 -6.11893,5.34533 -8.5654,7.618c-1.21007,1.124 -2.09183,1.96467 -2.6453,2.522l-1.7742,-1.761l-1.0181,-2.284l346.8221,-154.6438l1.018,2.2838zM370.817,102.488l-350.2619,156.178l-2.7924,-4.044c0.60107,-0.606 1.53143,-1.494 2.7911,-2.664c2.49327,-2.31533 5.39603,-4.897 8.7083,-7.745c4.6264,-3.978 9.74257,-8.206 15.3485,-12.684c7.00053,-5.592 14.57117,-11.418 22.7119,-17.478c20.70607,-15.41333 44.1749,-31.667 70.4065,-48.761c32.77333,-21.35667 68.951,-43.4241 108.533,-66.2023c8.89,-5.15307 17.72833,-9.26533 26.515,-12.3368c8.01267,-2.80113 15.94767,-4.7248 23.805,-5.771c7.04733,-0.9384 13.98867,-1.16573 20.824,-0.682c5.98933,0.42373 11.846,1.38893 17.57,2.8956c4.84533,1.2756 9.53333,2.92183 14.064,4.9387c3.628,1.61527 7.07433,3.43083 10.339,5.4467c2.34133,1.44593 4.47767,2.92293 6.409,4.431c0.988,0.77173 1.74767,1.4062 2.279,1.9034z"></path></svg>