<svg xmlns="http://www.w3.org/2000/svg" xmlns:xlink="http://www.w3.org/1999/xlink" width="228.17831420898438" height="375.94422912597656" viewBox="0 0 228.17831420898438 375.94422912597656" fill="none"><path id="路径 1" fill-rule="evenodd" style="fill:#D3D3D3" opacity="1" d="M5.52646,349.294l220.12954,-70.66c0,0 3.67,5.28 -84.24,62.45c-84.3795,54.87 -108.6495,27.51 -135.88954,8.21zM5.52646,349.294c0,0 -0.29,-70.74 51.51004,-262.98c21.72,-81.61995 84.3795,-83.68995 84.3795,-83.68995z"></path><path  id="路径 1" style="fill:#FFFFFF; opacity:1;" d="M140.054,338.988c20.102,-13.07267 36.81333,-24.33833 50.134,-33.797c10.62667,-7.54533 18.85367,-13.76633 24.681,-18.663c2.25933,-1.89867 4.106,-3.55567 5.54,-4.971c1.09467,-1.08067 1.90567,-1.97567 2.433,-2.685c0.16867,-0.22667 0.29433,-0.41567 0.377,-0.567c0.01933,-0.03533 0.03267,-0.062 0.04,-0.08c-0.00667,0.016 -0.01467,0.04033 -0.024,0.073c-0.05467,0.194 -0.07033,0.41167 -0.047,0.653c0.038,0.39067 0.173,0.75567 0.405,1.095c0.00333,0.004 0.007,0.009 0.011,0.015l2.052,-1.427l0.765,2.38l-220.13046,70.66l-0.76408,-2.38l1.44529,-2.04c1.3726,0.97267 3.41848,2.46067 6.13765,4.464c2.08887,1.53867 3.66117,2.688 4.7169,3.448c1.7502,1.26067 3.3439,2.374 4.7811,3.34c3.56873,2.39933 6.9158,4.38567 10.0412,5.959c3.72627,1.87533 7.4501,3.332 11.1715,4.37c4.1792,1.16667 8.49893,1.849 12.9592,2.047c4.89593,0.218 10.05087,-0.14067 15.4648,-1.076c5.8522,-1.01067 12.067,-2.70467 18.6444,-5.082c14.387,-5.19933 30.7755,-13.778 49.1655,-25.736zM142.779,343.18c-18.712,12.168 -35.44237,20.917 -50.1911,26.247c-6.8534,2.47667 -13.35093,4.24533 -19.4926,5.306c-5.7694,0.99667 -11.2822,1.37833 -16.5384,1.145c-4.84087,-0.216 -9.5344,-0.95833 -14.0806,-2.227c-4.03407,-1.12533 -8.05923,-2.69867 -12.0755,-4.72c-3.3128,-1.66733 -6.8405,-3.759 -10.5831,-6.275c-1.48153,-0.996 -3.1193,-2.14 -4.9133,-3.432c-1.06953,-0.77 -2.65643,-1.93033 -4.7607,-3.481c-2.69359,-1.984 -4.71444,-3.45367 -6.06253,-4.409l-4.08117,-2.892l226.654,-72.754l1.055,1.519c0.00533,0.008 0.009,0.013 0.011,0.015c0.25133,0.368 0.39967,0.78333 0.445,1.246c0.03733,0.38333 -0.002,0.77967 -0.118,1.189c-0.18,0.638 -0.57733,1.37033 -1.192,2.197c-1.49533,2.012 -4.41867,4.846 -8.77,8.502c-5.93067,4.984 -14.26467,11.288 -25.002,18.912c-13.37667,9.498 -30.14467,20.802 -50.304,33.912zM141.499,5.12269c-0.128,0.00423 -0.329,0.0167 -0.603,0.03743c-0.58,0.04383 -1.21633,0.10836 -1.909,0.19358c-2.25,0.27684 -4.625,0.71084 -7.125,1.30201c-3.516,0.83133 -7.023,1.91847 -10.521,3.26141c-4.378,1.68059 -8.61467,3.71525 -12.71,6.10398c-4.84333,2.82467 -9.41423,6.1023 -13.7127,9.8329c-4.91927,4.26913 -9.4355,9.09213 -13.5487,14.469c-4.6088,6.02473 -8.6819,12.7069 -12.2193,20.0465c-3.90407,8.10027 -7.1367,16.96277 -9.6979,26.5875c-11.86127,44.01933 -21.81913,84.71133 -29.8736,122.076c-6.44033,29.876 -11.5241,56.956 -15.2513,81.24c-1.46293,9.532 -2.68913,18.464 -3.6786,26.796c-0.79059,6.65667 -1.41278,12.78 -1.86657,18.37c-0.32316,3.98133 -0.54622,7.495 -0.66918,10.541c-0.06067,1.50267 -0.08957,2.604 -0.0867,3.304l-2.49999,0.01l-2.32757,-0.912l135.89011,-346.67032l2.327,0.91237zM145.13,0l-137.27597,350.206l-4.82754,-0.902c-0.00317,-0.774 0.02707,-1.94933 0.09073,-3.526c0.12569,-3.11333 0.35286,-6.69433 0.6815,-10.743c0.45881,-5.652 1.08717,-11.83733 1.88506,-18.556c0.99619,-8.388 2.23006,-17.376 3.70162,-26.964c3.7424,-24.38333 8.84427,-51.562 15.3056,-81.536c8.07247,-37.44733 18.049,-78.21663 29.9296,-122.3079c2.64247,-9.93 5.9843,-19.08747 10.0255,-27.4724c3.68547,-7.6468 7.9362,-14.618 12.7522,-20.9136c4.31953,-5.64653 9.06717,-10.71567 14.2429,-15.2074c4.5344,-3.93513 9.358,-7.3937 14.4708,-10.3757c4.32867,-2.52459 8.80767,-4.6755 13.437,-6.45274c3.70733,-1.4233 7.428,-2.57642 11.162,-3.45936c2.678,-0.63332 5.233,-1.09958 7.665,-1.39878c1.24467,-0.15311 2.23067,-0.24168 2.958,-0.26571z"></path></svg>