<svg xmlns="http://www.w3.org/2000/svg" xmlns:xlink="http://www.w3.org/1999/xlink" width="387.2075500488281" height="442.64488220214844" viewBox="0 0 387.2075500488281 442.64488220214844" fill="none"><path id="路径 1" fill-rule="evenodd" style="fill:#87CEEB" opacity="1" d="M15.7791,312.039l229.9279,42.013c0,0 0.539,6.407 -104.179,11.963c-100.5098,5.329 -111.8083,-23.641 -125.7489,-53.976zM15.7791,312.039c0,0 39.0788,-68.266 180.0589,-208.851c59.62,-59.8253 114.92,-30.2881 114.92,-30.2881z"></path><path  id="路径 1" style="fill:#FFFFFF; opacity:1;" d="M141.396,363.519c23.94533,-1.27067 44.05067,-2.67133 60.316,-4.202c12.976,-1.222 23.21133,-2.49633 30.706,-3.823c2.906,-0.51467 5.33367,-1.02633 7.283,-1.535c1.48867,-0.38867 2.63867,-0.75833 3.45,-1.109c0.25933,-0.112 0.46267,-0.21267 0.61,-0.302c0.03467,-0.02133 0.05967,-0.03767 0.075,-0.049c-0.014,0.01067 -0.033,0.02767 -0.057,0.051c-0.14467,0.14067 -0.26733,0.32133 -0.368,0.542c-0.162,0.35733 -0.22733,0.741 -0.196,1.151c0,0.00467 0.00033,0.01067 0.001,0.018l2.491,-0.209l-0.449,2.459l-229.9282,-42.012l0.4493,-2.46l2.2717,-1.044c0.17527,0.382 0.4378,0.95433 0.7876,1.717c1.12787,2.46133 1.97837,4.29933 2.5515,5.514c0.94827,2.01 1.82587,3.80133 2.6328,5.374c1.99347,3.884 3.99253,7.27067 5.9972,10.16c2.37747,3.426 4.97293,6.475 7.7864,9.147c3.14693,2.98933 6.68733,5.62733 10.6212,7.914c4.30267,2.50133 9.1663,4.63833 14.5909,6.411c5.83613,1.90667 12.39393,3.416 19.6734,4.528c15.77613,2.41067 35.3442,2.997 58.7042,1.759zM141.661,368.512c-12.13867,0.64333 -23.25133,0.80167 -33.338,0.475c-9.67247,-0.31267 -18.46797,-1.074 -26.3865,-2.284c-7.55047,-1.154 -14.3741,-2.727 -20.4709,-4.719c-5.75993,-1.88133 -10.9436,-4.16133 -15.551,-6.84c-4.27127,-2.48333 -8.12183,-5.35367 -11.5517,-8.611c-3.0614,-2.908 -5.87837,-6.21567 -8.4509,-9.923c-2.13073,-3.07067 -4.24327,-6.64633 -6.3376,-10.727c-0.83213,-1.62133 -1.73433,-3.46267 -2.7066,-5.524c-0.5814,-1.232 -1.43967,-3.08667 -2.5748,-5.564c-0.35027,-0.764 -0.6121,-1.33467 -0.7855,-1.712l-2.0069,-4.367l236.5374,43.22l0.161,1.906c0.00067,0.00933 0.001,0.01567 0.001,0.019c0.034,0.44467 -0.045,0.87833 -0.237,1.301c-0.15933,0.35067 -0.39167,0.67433 -0.697,0.971c-0.47533,0.46267 -1.18567,0.89833 -2.131,1.307c-2.30067,0.994 -6.249,1.98667 -11.845,2.978c-7.62867,1.35067 -17.99833,2.643 -31.109,3.877c-16.33333,1.53733 -36.50667,2.943 -60.52,4.217zM309.58,75.1051c-0.11267,-0.06027 -0.293,-0.15 -0.541,-0.2692c-0.524,-0.252 -1.10733,-0.51427 -1.75,-0.7868c-2.08733,-0.88533 -4.361,-1.697 -6.821,-2.435c-3.46067,-1.0378 -7.04133,-1.84977 -10.742,-2.4359c-4.632,-0.73347 -9.31867,-1.08973 -14.06,-1.0688c-5.606,0.02473 -11.203,0.5778 -16.791,1.6592c-6.39533,1.2376 -12.71833,3.15637 -18.969,5.7563c-7.00333,2.91313 -13.87167,6.6635 -20.605,11.2511c-7.43133,5.063 -14.662,11.12167 -21.692,18.176c-32.27933,32.18933 -61.453,62.80533 -87.521,91.848c-20.84393,23.22333 -39.23927,44.91767 -55.186,65.083c-6.25953,7.916 -12.02983,15.458 -17.3109,22.626c-4.22013,5.72733 -8.03283,11.086 -11.4381,16.076c-2.42627,3.55533 -4.52687,6.747 -6.3018,9.575c-0.878,1.39933 -1.51213,2.43967 -1.9024,3.121l-2.1697,-1.242l-1.5743,-1.942l294.9792,-239.1391l1.574,1.942zM315.259,72.4696l-297.9055,241.5114l-3.744,-3.184c0.42387,-0.74 1.09277,-1.83833 2.0067,-3.295c1.80893,-2.882 3.94453,-6.127 6.4068,-9.735c3.4392,-5.04 7.28677,-10.448 11.5427,-16.224c5.31473,-7.21333 11.11953,-14.80033 17.4144,-22.761c16.0112,-20.24733 34.4735,-42.02133 55.3869,-65.322c26.12933,-29.11133 55.36267,-59.79033 87.7,-92.037c7.25333,-7.2784 14.72633,-13.5381 22.419,-18.7791c7.01467,-4.7796 14.18133,-8.69147 21.5,-11.7356c6.564,-2.73033 13.21033,-4.74653 19.939,-6.0486c5.894,-1.14073 11.80033,-1.72413 17.719,-1.7502c5.01133,-0.02213 9.966,0.35463 14.864,1.1303c3.922,0.62113 7.72067,1.48283 11.396,2.5851c2.636,0.7906 5.082,1.66433 7.338,2.6212c1.154,0.48967 2.052,0.9059 2.694,1.2487z"></path></svg>